HIERARCHY
ROOT Hips
{
  OFFSET 0 0 0
  CHANNELS 6 Xposition Yposition Zposition Zrotation Yrotation Xrotation
  JOINT LeftThigh
  {
    OFFSET 8.409438 0 -5.917753
    CHANNELS 3 Zrotation Yrotation Xrotation
    JOINT LeftLeg
    {
      OFFSET 0 0 -42.358652
      CHANNELS 3 Zrotation Yrotation Xrotation
      JOINT LeftFoot
      {
        OFFSET 0 0 -39.357303
        CHANNELS 3 Zrotation Yrotation Xrotation
      }
    }
  }
  JOINT RightThigh
  {
    OFFSET -8.409438 0 -5.917753
    CHANNELS 3 Zrotation Yrotation Xrotation
    JOINT RightLeg
    {
      OFFSET 0 0 -42.358652
      CHANNELS 3 Zrotation Yrotation Xrotation
      JOINT RightFoot
      {
        OFFSET 0 0 -39.357303
        CHANNELS 3 Zrotation Yrotation Xrotation
      }
    }
  }
  JOINT SpineLow
  {
    OFFSET 0 0 4.719101
    CHANNELS 3 Zrotation Yrotation Xrotation
    JOINT SpineMid
    {
      OFFSET 0 0 12.899191
      CHANNELS 3 Zrotation Yrotation Xrotation
      JOINT Chest
      {
        OFFSET 0 0 12.899191
        CHANNELS 3 Zrotation Yrotation Xrotation
        JOINT LeftShoulder
        {
          OFFSET 7.550562 1.41573 9.438202
          CHANNELS 3 Zrotation Yrotation Xrotation
          JOINT LeftArm
          {
            OFFSET 9.155056 0 4.247191
            CHANNELS 3 Zrotation Yrotation Xrotation
            JOINT LeftForearm
            {
              OFFSET 0 0 25.771955
              CHANNELS 3 Zrotation Yrotation Xrotation
              JOINT LeftHand
              {
                OFFSET 0 0 25.197169
                CHANNELS 3 Zrotation Yrotation Xrotation
              }
            }
          }
        }
        JOINT RightShoulder
        {
          OFFSET -7.550562 1.41573 9.438202
          CHANNELS 3 Zrotation Yrotation Xrotation
          JOINT RightArm
          {
            OFFSET -9.155056 0 4.247191
            CHANNELS 3 Zrotation Yrotation Xrotation
            JOINT RightForearm
            {
              OFFSET 0 0 -25.771955
              CHANNELS 3 Zrotation Yrotation Xrotation
              JOINT RightHand
              {
                OFFSET 0 0 -25.197169
                CHANNELS 3 Zrotation Yrotation Xrotation
              }
            }
          }
        }
        JOINT Neck
        {
          OFFSET 0 0 15.101124
          CHANNELS 3 Zrotation Yrotation Xrotation
          JOINT Head
          {
            OFFSET 0 0 11.325843
            CHANNELS 3 Zrotation Yrotation Xrotation
            End Site
            {
              OFFSET 0 0 14.157303
            }
          }
        }
      }
    }
  }
}
MOTION
Frames: 5
Frame Time: 0.0
0.0  93.25843  0.0  -4.566027  -20.052669  -87.066414  18.360994  -23.98483  -33.915337  14.971217  3.95412  36.195732  -4.946565  1.153219  0.344611  6.612047  12.676126  19.577794  -22.274746  -5.982382  -3.975527  -5.037089  -0.692844  -2.618687  2.38304  -0.423107  -0.108816  6.516292  -1.144512  -0.338802  6.516292  -1.144512  -0.338802  -26.116269  17.846937  -4.141981  -162.218487  66.956807  -95.653145  -33.102767  7.461524  87.800881  46.511056  -13.299564  14.199703  -4.500221  -13.048909  18.880218  83.201074  41.252604  23.949196  -24.413086  -7.837278  -112.820783  66.052349  19.438466  -6.718423  3.309604  0.540702  1.577994  2.480808  0.41409  1.180599  
0.0  93.25843  0.0  -4.172177  -20.522602  -87.310709  19.173447  -23.570267  -33.995262  15.676662  3.520069  36.469698  -5.045857  1.29999  0.37878  7.498476  13.033844  19.936452  -22.18211  -6.060707  -4.153503  -4.997786  -0.654754  -2.620635  2.442806  -0.411246  -0.112801  6.679648  -1.111392  -0.34951  6.679648  -1.111392  -0.34951  -25.770533  18.015004  -4.100294  -162.454248  67.281703  -95.750918  -33.18374  7.204214  87.643264  46.613173  -13.445016  14.027573  -5.23639  -12.975581  18.396395  84.408638  40.695534  24.584429  -24.384462  -7.696227  -112.579273  66.5456  19.404082  -6.926583  3.34448  0.640004  1.736821  2.506539  0.489529  1.299146  
0.0  93.25843  0.0  -4.070401  -20.159563  -87.164585  19.52296  -23.247077  -34.488884  16.140408  3.255183  36.745559  -4.939802  1.318507  0.443334  7.702756  13.082464  20.055005  -22.37455  -6.257447  -4.387902  -5.126755  -0.668986  -2.592007  2.435624  -0.420118  -0.165595  6.660975  -1.130339  -0.494437  6.660975  -1.130339  -0.494437  -25.695741  18.030565  -4.031559  -162.904939  67.49139  -95.918273  -33.297288  6.891463  87.433464  46.667349  -13.514574  13.918668  -4.980792  -12.956064  18.42717  84.030969  40.984707  24.467133  -24.412992  -7.545513  -112.281503  66.995484  19.311271  -7.230409  3.245316  0.73576  1.876555  2.431721  0.561809  1.403537  
0.0  93.25843  0.0  -3.743999  -20.661873  -87.262063  20.64174  -22.717735  -34.696979  16.544082  3.03605  36.943232  -4.83546  1.387622  0.469553  8.823768  13.281183  20.404007  -22.732806  -6.529148  -4.621452  -5.106555  -0.595984  -2.544835  2.538708  -0.40484  -0.198296  6.943146  -1.084378  -0.583851  6.943147  -1.084378  -0.583851  -25.590203  18.030307  -3.958483  -163.231163  67.643364  -96.172413  -33.408501  6.751666  87.234551  46.749344  -13.620693  13.777213  -4.799028  -12.974835  18.381924  84.155105  41.152822  24.599676  -24.455144  -7.419322  -111.945626  67.294978  19.176897  -7.531281  3.033844  0.768743  1.962893  2.272907  0.586326  1.468374  
0.0  93.25843  0.0  -3.684983  -20.374243  -87.049524  21.203894  -22.392245  -35.183403  16.894799  2.974975  37.016693  -4.429926  1.456189  0.58468  9.140498  13.227645  20.537045  -22.935145  -6.64178  -4.910294  -5.40703  -0.608118  -2.493181  2.559935  -0.410587  -0.262634  7.002281  -1.093059  -0.760453  7.00228  -1.093059  -0.760453  -25.593806  17.95046  -3.938154  -163.539257  67.769655  -96.367342  -33.536307  6.770284  87.023222  46.800443  -13.703449  13.679001  -4.463292  -13.076097  18.366815  84.071839  41.591521  24.560488  -24.515411  -7.36976  -111.534872  67.486263  19.043648  -7.808423  2.921017  0.869401  2.087629  2.187782  0.662056  1.561579  
